<?xml version="1.0" encoding="utf-8"?>
<!-- Generator: Adobe Illustrator 15.0.0, SVG Export Plug-In . SVG Version: 6.00 Build 0)  -->
<!DOCTYPE svg PUBLIC "-//W3C//DTD SVG 1.1//EN" "http://www.w3.org/Graphics/SVG/1.1/DTD/svg11.dtd">
<svg version="1.1" id="图层_1" xmlns="http://www.w3.org/2000/svg" xmlns:xlink="http://www.w3.org/1999/xlink" x="0px" y="0px"
	 width="595.28px" height="166px" viewBox="0 0 595.28 166" enable-background="new 0 0 595.28 166" xml:space="preserve">
<g>
	<rect x="8.755" y="11.479" fill-rule="evenodd" clip-rule="evenodd" fill="#BB1B21" width="577.705" height="102.75"/>
	<rect x="8.755" y="114.229" fill-rule="evenodd" clip-rule="evenodd" fill="#040000" width="577.705" height="41.705"/>
	<path fill-rule="evenodd" clip-rule="evenodd" fill="#FFFFFF" d="M186.501,29.571c-1.482-0.882-1.646-1.859,0.257-2.74
		c4.702-2.941,14.35-5.251,23.982-6.762c2.857-0.087,5.363-0.324,7.144-1.321c3.061-0.621,7.331,0.867,5.594,5.271
		c-2.62,1.803-4.372,2.924-6.992,4.727c-0.904,1.229-3.309,2.588-5.136,2.128c-2.531,2.586-5.206,3.716-8.196,4.612
		c0.532,0.366,1.806,0.197,3.415-0.216c1.596-0.551,3.049-0.778,4.186-0.289c1.229-0.103,2.103,0.186,2.564,0.864
		c2.319,2.786,1.326,4.769-1.739,5.217c-2.009,0.058-5.867,0.459-8.015,1.868c-0.875,0.575-1.856,1.318-3.063,1.801
		c-2.331,0.935-2.923,4.201-5.494,6.117c-0.485,3.334-0.78,5.864-2.496,6.469c-0.684,0.865-0.888,1.681-0.033,2.547
		c2.571,1.894,0.186,4.485-1.721,6.12c-3.123,1.067-5.131,1.726-8.1,3.834c-1.64,0.278-2.914,0.295-1.622-1.515
		c1.054-0.685,2.107-1.825,3.161-3.03c1.129-1.347,1.069-2.839,0.507-4.185c-2.022-2.63,1.371-6.998,3.196-8.328
		c0.19-0.028,2.856-0.946,4.121-4.312c0.029-0.36,0.345-1.062,0.373-1.422c-5.172,2.348-11.803,2.56-19.748,1.139
		c-1.855-0.968-2.942-2.651-0.491-3.879c2.498,0.35,7.188-0.208,9.716-1.259c1.178-0.49,3.362-2.159,5.55-2.222
		c1.986-0.057,3.172-1.111,4.803-2.361c8.507-5.125,20.871-12.469,19.47-14.857c-1.335-0.107-5.856,2.843-8.604,2.681
		c-1.749-0.103-6.006,2.225-9.158,3.954c-1.303,0.778-2.145,1.067-4.948,0.432C188.868,30.341,187.848,29.882,186.501,29.571z"/>
	<path fill-rule="evenodd" clip-rule="evenodd" fill="#FFFFFF" d="M215.422,47.066c1.182-1.138,2.018-1.103,2.506,0.104
		c0,0.816,0,1.635,0,2.452c0.1,1.008-0.605,2.108-1.337,2.531c-1.039,0.627-1.035,0.771-2.074,1.398
		c-1.393,2.121-3.839,2.818-5.648,3.062c-0.982,0.579-1.651,0.85-2.632,1.429c-2.084,0.208-2.677-0.257-1.571-1.571
		c0.57-0.745,1.277-1.331,2.54-2.193c-0.121-0.775,2.332-2.377,3.472-2.916C211.542,49.355,214.216,49.27,215.422,47.066z"/>
	<path fill-rule="evenodd" clip-rule="evenodd" fill="#FFFFFF" d="M211.64,62.684c0.552-0.65,0.719-0.802,1.079-0.152
		c0.057,0.746-0.103,1.126-0.046,1.871c-0.484,0.167-0.536,0.226-1.019-0.011C211.626,63.681,211.669,63.396,211.64,62.684z"/>
	<path fill-rule="evenodd" clip-rule="evenodd" fill="#FFFFFF" d="M196.289,79.267c0.459-1.066,1.296-1.093,2.878-0.958
		c1.191-0.185,2.04,0.217,1.51,2.057c-0.603,0.784-1.453,1.355-2.13,1.761c-0.855,0.788-1.318,0.564-2.173-0.291
		C196.374,81.083,196.289,80.021,196.289,79.267z"/>
	<path fill-rule="evenodd" clip-rule="evenodd" fill="#FFFFFF" d="M176.084,78.196c-2.737-1.279-3.29-2.445-1.523-3.724
		c1.508-0.77,2.35-1.238,3.86-2.007c1.421-0.234,5.203-1.815,6.011-2.164c5.441-0.894,8.118-0.371,11.72,0.525
		c0.342,0.36,0.684,0.721,1.025,1.081c1.75,1.005,4.966-0.776,9.793-4.404c0.686-0.354,1.595-2.987,1.709-5.538
		c0.922-2.274,3.431-2.871,5.726-1.529c2.36,1.071,3.643,3.515,3.309,4.503c0.142,1.515,0.032,1.872-0.042,2.929
		c-0.666,0.643-1.365,2.541-1.739,4.08c-1.666,0.356-2.605,1.743-4.082,3.69c0.008,2.321-0.263,4.963-0.459,6.442
		c-0.98,0.811-1.63,3.05-2.003,5.912c-0.852,2.236-0.772,4.686-0.818,7.604c-0.68,1.095-0.498,1.751-1.262,2.508
		c-1.25,1.353-2.975,2.357-4.11,0.526c-0.228-1.3-0.156-1.331-0.383-2.628c0.338-2.251-1.244-2.643-4.748-2.384
		c-1.831,0.683-1.063,0.692-3.257,1.084c-2.947,0.526-9.124,3.631-13.48,5.48c-4.029,2.021-7.185,2.693-10.519,4.321
		c-1.684,0.824-2.408,1.778-4.587,2.097c-5.145,1.771-6.64-1.423-4.186-3.392c4.937-3.028,11.852-6.966,18.96-9.997
		c7.082-1.466,10.604-3.147,13.23-6.447c0.967-0.077,2.836-0.251,3.803-0.038c1.099-1.754,1.847-2.444,2.604-2.558
		c1.583,0.092,1.775-1.188,2.786-5.829c0.152-1.181,1.185-3.539-1.383-2.258c-0.848,0.423-2.781-0.006-3.542-0.062
		c-1.024-0.077-3.436,0.455-3.581,2.107c-0.163,1.861-0.801,1.307-1.543,1.843c-1.946,4.043-3.412,5.418-5.916,5.138
		c-3.054,3.43-5.03,5.227-7.017,5.551c-1.051,1.135-2.193,2.48-1.927,3.11c-0.401,1.092-2.106,1.657-3.025-0.441
		c0.191-1.256-0.017-2.587,0.175-3.843c-0.334-0.739-0.491-0.769-0.825-1.505c-1.215-0.957-1.361-3.027,0.273-3.583
		c1.856-1.421,2.943-2.459,3.489-6.198C177.613,78.198,177.07,78.197,176.084,78.196L176.084,78.196z M183.061,78.568
		c-0.202,0.614,0.454,0.745,1.695,0.546c0.525-0.68,1.952-0.913,3.055-0.457c2.208-0.744,2.245-1.04,4.094-2.931
		c0.314-1.165-0.358-2.179-1.582-1.639C187.765,74.915,185.521,76.119,183.061,78.568z"/>
	<path fill-rule="evenodd" clip-rule="evenodd" fill="#FFFFFF" d="M215.537,87.198c0.273,1.355,1.147,2.723,0.82,4.067
		c-0.414,1.708,0.033,3.095,0.875,4.331c0.734,1.259,1.817,1.575,3.25,0.949c1.17-0.712,2.688-1.523,3.72-2.707
		c0.473-0.921,0.339-1.418,0.266-3.769c0.147-1.387-2.123-2.838-4.817-3.905C217.319,85.184,216.053,85.351,215.537,87.198z"/>
	<path fill-rule="evenodd" clip-rule="evenodd" fill="#FFFFFF" d="M245.516,59.727l5.063-4.305l3.525-3.821l5.012-5.834
		c2.775-1.502,6.042-0.167,5.594,1.693c-0.036,5.089-0.837,9.324-1.849,14.207l-1.307,5.837l-1.216,5.901l-0.366,2.755l-2.574,5.257
		l-1.263,4.391l-2.574,2.977c-2.325,0.094-4.191-0.223-2.844-3.433l1.22-0.802l1.219-2.06l0.948-4.689l1.761-5.606l1.218-5.034
		l0.948-5.149l1.22-7.321c-0.28-1.259-1.048-1.488-2.303-0.688c-1.662,0.958-2.943,2.43-3.386,5.034
		c-0.368,2.383-1.622,4.083-2.844,5.949C245.814,66.141,243.593,64.543,245.516,59.727z"/>
	<path fill-rule="evenodd" clip-rule="evenodd" fill="#FFFFFF" d="M264.354,63.997l6.005-7.248l2.621-3.05
		c2.904-2.035,4.527-1.961,5.239,0.533l-0.681,4.347c1.11-0.207,2.22-0.413,3.33-0.62c1.727,0.707,2.846,1.928,3.355,3.663
		l-1.31,1.511l-0.634,9.061c-1.593,3.462-3.187,2.677-4.78-0.038l0.175-6.712l-1.35-0.152l-2.659,14.793
		c-1.443,1.855-3.785,1.534-5.473-0.112l0.407-2.632l1.219-3.203l1.218-2.86l0.542-2.402l0.501-2.326l0.766-4.841
		c-0.36-0.178-0.721-0.354-1.08-0.532c-1.182,1.791-1.876,3.582-2.083,5.373c-0.214,2.77-1.602,3.195-3.522,2.669
		C264.17,68.019,263.172,66.432,264.354,63.997z"/>
	<path fill-rule="evenodd" clip-rule="evenodd" fill="#FFFFFF" d="M284.171,50.11l1.581-1.296l0.961-1.026
		c1.051-0.902,2.1-1.806,3.15-2.708c2.33-1.14,3.685-0.53,4.064,1.83c1.808,3.421,0.831,8.833-0.542,14.529l-1.218,12.471
		c0.23,6.312-0.668,12.431-1.663,18.538c-2.346,2.251-3.609,1.392-4.247-0.889l0.22-13.188c0.272-4.118,0.542-8.238,0.814-12.355
		c0.561-4.081,1.283-8.162,2.576-12.241l-0.159-2.52c-3.229,2.081-5.237,2.204-6.028,0.373L284.171,50.11z"/>
	<path fill-rule="evenodd" clip-rule="evenodd" fill="#FFFFFF" d="M321.785,66.457c-1.492,2.145-0.681,3.265,2.44,3.357
		c0.821,0.456,0.543,1.373,0.816,2.061l-2.71,2.63l-4.059,5.229c-1.717,3.583,0.029,4.712,4.188,3.995l7.048-6.135l2.303-2.975
		l4.064-7.894l8.034-6.83l0.227-3.238l-2.031-2.403l-1.49,0.229l-0.676,1.03l-0.628,2.56l-1.812,1.217l-1.846-1.107
		c-0.061-1.856-0.121-3.713-0.179-5.569c-0.769-1.295-1.657-1.357-2.667-0.191l-2.13,6.064l-1.121,4.457l-5.739,3.095
		C323.144,66.179,322.465,66.318,321.785,66.457z"/>
	<path fill-rule="evenodd" clip-rule="evenodd" fill="#FFFFFF" d="M335.742,73.475c-0.28-1.226-0.225-2.452,2.077-1.832l4.695,4.121
		l2.029,1.03c3.058,1.115,3.14,2.794,3.251,4.347l-1.802,4.538c-1.174,1.349-2.29,0.744-3.613,0.039L340.616,84l-2.302-3.089
		C337.457,78.433,336.597,75.955,335.742,73.475z"/>
	<path fill-rule="evenodd" clip-rule="evenodd" fill="#FFFFFF" d="M389.08,32.997l0.382,1.378
		c4.782,7.571,6.043,12.594,3.777,15.068c-0.029,1.121,1.092,1.253,3.357,0.401l1.843-4.351l-0.184-3.975
		c2.769,0.406,3.916,2.374,4.944,4.884c-0.927,1.034-1.85,2.068-2.777,3.102c-0.154,0.709-0.271,1.259,0.854,0.897l2.846-1.818
		c2.698,1.63,5.234,3.309,6.657,5.313l-2.901,2.242c-0.171,0.629,0.104,1.003,0.829,1.123l3.038-1.309l1.734,1.054l3.882-0.309
		l16.684-16.898c0.705-1.785-0.174-2.465-2.159-2.878l-16.075,3.108l-0.046,1.256l3.085,0.64l11.11-2.52l-13.99,13.355l-2.862-0.005
		l-2.043-1.686c4.097,0.309,6.835-2.21,5.797-4.936l-4.577-3.633l3.838-4.124l-3.149-2.616l16.91-14.517
		c0.587-1.048,0.544-1.406-0.307-1.765c-7.99,4.938-11.184,7.752-21.695,16.002c-4.382,0.197-7.925,1.072-11.336,2.311
		C393.766,35.434,391.092,31.846,389.08,32.997L389.08,32.997z M411.833,39.624c0.044,0.879-3.097,3.141-5.435,4.135l-3.454-0.833
		c-0.058-0.163,6.474-4.442,9.02-4.067L411.833,39.624L411.833,39.624z M411.818,45.078c0.044,0.878,0.264,1.174-1.854,2.383
		l-1.52-0.684c-0.659-2.132,0.034-2.188,2.37-3.18L411.818,45.078z"/>
	<path fill-rule="evenodd" clip-rule="evenodd" fill="#FFFFFF" d="M418.135,44.646c0.228,0.883,0.803,1.36,1.725,1.433
		c0.974-0.3,1.846-0.826,2.614-1.582c-0.09-0.969-0.123-1.666-0.916-1.821C419.461,42.543,418.843,43.583,418.135,44.646z"/>
	<path fill-rule="evenodd" clip-rule="evenodd" fill="#FFFFFF" d="M388.02,46.186c-1.167,0.661-2.085,1.718-2.2,3.417
		c-0.247,3.758,0.372,6.248,2.266,6.878c1.198-0.2,1.802-0.669,2.541-1.891C391.554,51.253,389.611,46.168,388.02,46.186z"/>
	<path fill-rule="evenodd" clip-rule="evenodd" fill="#FFFFFF" d="M395.631,51.747l-2.524,2.35l1.031,1.503l8.205-0.665l1.771-1.436
		l-0.812-1.919l-5.771,1.625C397.616,51.995,396.654,51.836,395.631,51.747z"/>
	<path fill-rule="evenodd" clip-rule="evenodd" fill="#FFFFFF" d="M365.063,69.628c-2.141,5.51,2.456,6.832,9.35,4.887
		c11.561-7.152,20.626-12.092,32.979-16.039c0.625-1.429-0.133-2.271-1.783-2.144c-13.325,2.743-24.766,6.766-34.774,11.871
		C368.829,68.638,367.068,69.195,365.063,69.628z"/>
	<path fill-rule="evenodd" clip-rule="evenodd" fill="#FFFFFF" d="M425.159,53.972c0.36,1.22,1.003,2.267,2.239,2.469
		c-2.338,0.565-3.377,1.896-5.357,2.192c-6.241,0.931-12.394,2.845-13.328,5.577l-7.044,0.687c-2.928,0.93-5.246,2.466-6.956,4.607
		c0.558,3.256,1.12,6.512,1.681,9.768c-4.053,2.453-8.751,2.666-13.318,3.326c-3.71,2.608-2.377,5.144,4,7.61l10.515-1.785
		c0.751,4.1,2.605,7.867,2.149,12.024c-3.995-0.077-9.092-2.483-12.8-4.98c0.972,3.415,8.141,6.891,12.087,10.282
		c2.454-0.459,4.034-2.239,4.742-5.346c0.381-4.234,0.094-8.468-1.67-12.71l3.628-3.261l7.372-0.959
		c2.913-1.816,3.802-3.636,0.223-5.728l-11.104,1.21l-3.162-8.619l5.51-3.736c2.524-0.169,4.751-0.787,6.775-1.713l12.579-2.03
		c4.126-1.492,6.846-4.011,9.187-6.49c0.736-1.132,0.495-2.07-0.718-2.815C428.751,52.688,425.809,52.829,425.159,53.972z"/>
	<path fill-rule="evenodd" clip-rule="evenodd" fill="#FFFFFF" d="M34.159,148.29v-10.346h1.648c1.086,2.778,2.616,4.961,4.6,6.536
		c1.979,1.582,4.138,2.372,6.479,2.372c1.198,0,2.147-0.256,2.865-0.777c0.711-0.522,1.068-1.198,1.068-2.034
		c0-0.877-0.351-1.623-1.042-2.22c-0.692-0.602-2.366-1.406-5.013-2.408c-4.001-1.531-6.784-3.058-8.359-4.57
		c-1.571-1.512-2.358-3.343-2.358-5.482c0-2.401,0.906-4.329,2.71-5.773c1.802-1.449,4.22-2.169,7.257-2.169
		c1.999,0,4.04,0.389,6.125,1.167c2.085,0.777,3.215,1.166,3.385,1.166c0.45,0,0.824-0.149,1.122-0.451
		c0.3-0.302,0.538-0.766,0.706-1.403H57v9.152h-1.612c-0.935-2.38-2.376-4.285-4.325-5.716c-1.941-1.437-4.034-2.151-6.262-2.151
		c-1.048,0-1.866,0.212-2.458,0.633c-0.593,0.42-0.887,1.005-0.887,1.738c0,0.783,0.375,1.505,1.125,2.17
		c0.749,0.659,1.921,1.304,3.521,1.927c0.424,0.174,1.042,0.421,1.847,0.734c3.746,1.498,6.162,2.647,7.261,3.454
		c1.267,0.923,2.184,1.898,2.752,2.926c0.567,1.031,0.849,2.22,0.849,3.582c0,2.531-0.899,4.555-2.697,6.092
		c-1.797,1.538-4.17,2.309-7.122,2.309c-2.511,0-5.007-0.444-7.493-1.343c-2.477-0.894-3.774-1.341-3.9-1.341
		c-0.524,0-0.949,0.193-1.28,0.59c-0.331,0.394-0.524,0.939-0.585,1.638H34.159L34.159,148.29z M79.9,141.471v-12.908
		c0-2.105-0.301-3.555-0.901-4.348c-0.592-0.79-1.634-1.186-3.107-1.186c-1.479,0-2.522,0.396-3.127,1.193
		c-0.612,0.797-0.918,2.243-0.918,4.34v12.908c0,2.106,0.306,3.563,0.918,4.367c0.605,0.802,1.648,1.203,3.127,1.203
		c1.461,0,2.496-0.396,3.101-1.193C79.599,145.051,79.9,143.592,79.9,141.471L79.9,141.471z M75.892,148.898
		c-4.195,0-7.679-1.312-10.451-3.935c-2.776-2.623-4.163-5.923-4.163-9.889c0-3.972,1.393-7.264,4.169-9.88
		c2.779-2.618,6.264-3.927,10.445-3.927c4.17,0,7.646,1.316,10.436,3.951c2.785,2.636,4.176,5.916,4.176,9.855
		c0,3.954-1.391,7.246-4.17,9.876C83.557,147.58,80.074,148.898,75.892,148.898L75.892,148.898z M111.332,141.471v-12.908
		c0-2.105-0.3-3.555-0.898-4.348c-0.594-0.79-1.635-1.186-3.11-1.186c-1.479,0-2.522,0.396-3.127,1.193
		c-0.612,0.797-0.917,2.243-0.917,4.34v12.908c0,2.106,0.304,3.563,0.917,4.367c0.605,0.802,1.648,1.203,3.127,1.203
		c1.461,0,2.498-0.396,3.104-1.193C111.032,145.051,111.332,143.592,111.332,141.471L111.332,141.471z M107.324,148.898
		c-4.195,0-7.678-1.312-10.448-3.935c-2.779-2.623-4.164-5.923-4.164-9.889c0-3.972,1.391-7.264,4.17-9.88
		c2.777-2.618,6.261-3.927,10.442-3.927c4.171,0,7.647,1.316,10.437,3.951c2.785,2.636,4.177,5.916,4.177,9.855
		c0,3.954-1.393,7.246-4.17,9.876C114.989,147.58,111.507,148.898,107.324,148.898L107.324,148.898z M151.448,138.771
		c-0.293,3.282-1.492,5.792-3.601,7.531c-2.111,1.729-5.013,2.597-8.708,2.597c-4.489,0-8.115-1.269-10.882-3.81
		c-2.766-2.536-4.149-5.835-4.149-9.905c0-4.01,1.323-7.328,3.976-9.964c2.652-2.635,5.975-3.951,9.955-3.951
		c2.734,0,5.532,0.739,8.396,2.227c0.819,0.413,1.343,0.621,1.575,0.621c0.317,0,0.574-0.188,0.761-0.572
		c0.186-0.377,0.337-0.991,0.449-1.836h1.605l0.256,11.676h-1.719c-0.487-3.113-1.579-5.604-3.283-7.473
		c-1.697-1.87-3.7-2.808-6.011-2.808c-1.999,0-3.396,0.778-4.195,2.329c-0.798,1.551-1.198,4.775-1.198,9.676
		c0,4.793,0.473,7.974,1.417,9.541c0.951,1.57,2.61,2.353,4.988,2.353c2.377,0,4.328-0.72,5.842-2.169
		c1.518-1.444,2.454-3.464,2.811-6.063H151.448L151.448,138.771z M166.228,144.297c0,1.106,0.125,1.802,0.375,2.092
		c0.249,0.29,0.749,0.433,1.49,0.433h0.987v1.469h-15.436v-1.469h1.222c0.756,0,1.262-0.143,1.512-0.433s0.373-0.985,0.373-2.092
		v-18.526c0-1.084-0.123-1.772-0.373-2.058c-0.25-0.28-0.756-0.421-1.512-0.421h-1.222v-1.396h15.436v1.396h-0.987
		c-0.753,0-1.252,0.141-1.496,0.421c-0.244,0.285-0.369,0.974-0.369,2.058v6.708h6.853v-6.708c0-1.077-0.123-1.756-0.373-2.043
		c-0.25-0.29-0.756-0.436-1.511-0.436h-0.967v-1.396h15.437v1.396h-1.244c-0.753,0-1.253,0.141-1.498,0.421
		c-0.243,0.285-0.367,0.974-0.367,2.058v18.526c0,1.106,0.125,1.802,0.375,2.092c0.249,0.29,0.749,0.433,1.49,0.433h1.244v1.469
		h-15.437v-1.469h0.967c0.755,0,1.261-0.143,1.511-0.438c0.25-0.297,0.373-0.992,0.373-2.087v-9.152h-6.853V144.297L166.228,144.297
		z M206.009,141.471v-12.908c0-2.105-0.301-3.555-0.901-4.348c-0.592-0.79-1.634-1.186-3.107-1.186
		c-1.479,0-2.523,0.396-3.129,1.193c-0.61,0.797-0.917,2.243-0.917,4.34v12.908c0,2.106,0.307,3.563,0.917,4.367
		c0.606,0.802,1.65,1.203,3.129,1.203c1.46,0,2.496-0.396,3.101-1.193C205.708,145.051,206.009,143.592,206.009,141.471
		L206.009,141.471z M202,148.898c-4.196,0-7.679-1.312-10.451-3.935c-2.778-2.623-4.163-5.923-4.163-9.889
		c0-3.972,1.39-7.264,4.169-9.88c2.777-2.618,6.262-3.927,10.444-3.927c4.169,0,7.646,1.316,10.435,3.951
		c2.785,2.636,4.177,5.916,4.177,9.855c0,3.954-1.392,7.246-4.171,9.876C209.666,147.58,206.183,148.898,202,148.898L202,148.898z
		 M230.21,148.29l-8.576-22.48c-0.405-1.054-0.818-1.732-1.242-2.046c-0.431-0.312-1.149-0.472-2.159-0.472h-0.531v-1.396h15.874
		v1.396h-1.005c-0.638,0-1.067,0.077-1.299,0.22c-0.229,0.152-0.349,0.416-0.349,0.79c0,0.152,0.018,0.305,0.043,0.459
		c0.031,0.164,0.082,0.334,0.138,0.517l5.581,14.926l3.856-10.515l-1.753-4.498c-0.27-0.717-0.574-1.207-0.924-1.482
		c-0.348-0.275-0.824-0.416-1.435-0.416h-1.156v-1.396h16.623v1.396h-1.791c-0.63,0-1.085,0.087-1.361,0.266
		s-0.411,0.469-0.411,0.877c0,0.157,0.025,0.334,0.075,0.522c0.049,0.188,0.125,0.412,0.235,0.669l5.686,14.908L258.976,128
		c0.138-0.384,0.236-0.761,0.305-1.143c0.063-0.377,0.101-0.729,0.101-1.048c0-0.821-0.262-1.442-0.78-1.87
		c-0.519-0.435-1.28-0.647-2.291-0.647v-1.396h9.744v1.396c-1.192,0.039-2.234,0.522-3.122,1.449
		c-0.879,0.938-1.697,2.436-2.46,4.508l-7.071,19.041h-5.617l-6.256-16.157l-5.849,16.157H230.21L230.21,148.29z M282.541,137.8
		v-12.022c0-1.104-0.126-1.794-0.37-2.069c-0.244-0.275-0.75-0.416-1.518-0.416h-1.223v-1.396h15.438v1.396h-0.988
		c-0.755,0-1.254,0.146-1.498,0.436c-0.243,0.287-0.369,0.971-0.369,2.05v12.882c0,1.705,0.043,2.898,0.138,3.575
		c0.093,0.686,0.25,1.256,0.469,1.72c0.387,0.872,1.048,1.543,1.984,2.015c0.93,0.469,2.04,0.71,3.333,0.71
		c2.196,0,3.745-0.623,4.658-1.865c0.903-1.248,1.359-3.608,1.359-7.091v-10.551c0-1.582-0.181-2.623-0.538-3.126
		c-0.362-0.502-1.041-0.754-2.039-0.754h-0.331v-1.396h8.121v1.396c-1.218,0-2.044,0.266-2.466,0.798
		c-0.431,0.536-0.643,1.589-0.643,3.156v10.698c0,2.314-0.131,4.034-0.401,5.145c-0.269,1.116-0.725,2.044-1.355,2.798
		c-0.867,1.017-2.06,1.768-3.574,2.266c-1.519,0.495-3.416,0.746-5.681,0.746c-2.278,0-4.263-0.231-5.943-0.69
		c-1.685-0.459-3.028-1.136-4.025-2.032c-0.925-0.83-1.58-1.816-1.967-2.956C282.733,142.077,282.541,140.271,282.541,137.8
		L282.541,137.8z M310.491,148.29v-1.469c1.164,0,1.966-0.312,2.396-0.947c0.426-0.628,0.638-2.033,0.638-4.198v-16.62
		c-0.439-0.672-0.881-1.136-1.318-1.387s-1.012-0.377-1.715-0.377v-1.396h12.053l12.928,18.42v-12.461
		c0-1.89-0.213-3.114-0.631-3.669c-0.418-0.561-1.212-0.855-2.364-0.895v-1.396h8.207v1.396c-1.231,0.077-2.067,0.436-2.497,1.075
		c-0.43,0.645-0.649,1.843-0.649,3.597v20.326h-7.428l-14.536-20.471v14.077c0,1.92,0.218,3.225,0.652,3.903
		c0.444,0.684,1.217,1.021,2.343,1.021v1.469H310.491L310.491,148.29z M354.39,144.305c0,1.099,0.125,1.794,0.374,2.084
		s0.756,0.433,1.51,0.433h1.261v1.469h-15.69v-1.469h1.239c0.743,0,1.243-0.143,1.492-0.433c0.251-0.29,0.375-0.985,0.375-2.084
		v-18.534c0-1.084-0.124-1.772-0.367-2.058c-0.244-0.28-0.744-0.421-1.5-0.421h-1.239v-1.396h15.435v1.396h-1.005
		c-0.754,0-1.261,0.141-1.51,0.421c-0.249,0.285-0.374,0.974-0.374,2.058V144.305L354.39,144.305z M371.295,148.29l-9.031-22.244
		c-0.474-1.222-0.949-1.985-1.418-2.295c-0.469-0.307-1.186-0.459-2.147-0.459h-0.623v-1.396h16.328v1.396h-0.949
		c-0.674,0-1.128,0.077-1.379,0.232c-0.251,0.152-0.374,0.42-0.374,0.816c0,0.22,0.012,0.415,0.043,0.589
		c0.031,0.172,0.075,0.321,0.138,0.459l6.143,15.787l4.993-12.499c0.246-0.633,0.439-1.216,0.574-1.752
		c0.146-0.531,0.213-0.978,0.213-1.335c0-0.723-0.249-1.288-0.749-1.688c-0.497-0.406-1.193-0.609-2.065-0.609h-0.331v-1.396h10.15
		v1.396h-0.201c-1.225,0-2.222,0.372-3.009,1.106c-0.788,0.734-1.59,2.126-2.423,4.169l-8.008,19.723H371.295L371.295,148.29z
		 M391.044,148.29v-1.438h1.222c0.744,0,1.244-0.145,1.5-0.439s0.387-0.998,0.387-2.116v-18.52c0-1.064-0.126-1.743-0.377-2.026
		c-0.246-0.282-0.754-0.42-1.51-0.42h-1.222v-1.435h28.05l0.146,9.686h-1.392c-0.938-2.698-2.392-4.744-4.357-6.149
		c-1.971-1.398-4.377-2.102-7.213-2.102c-1.023,0-1.72,0.169-2.094,0.507c-0.369,0.334-0.558,1.029-0.558,2.082v7.964h0.495
		c2.156,0,3.813-0.464,4.973-1.398c1.165-0.93,1.769-2.285,1.831-4.061h1.392v12.5l-1.392-0.02
		c-0.102-1.864-0.739-3.243-1.913-4.135c-1.179-0.898-2.971-1.367-5.386-1.418v8.452c0,1.396,0.169,2.251,0.507,2.572
		c0.331,0.318,1.367,0.476,3.097,0.476c2.802,0,5.13-0.684,6.979-2.058c1.853-1.372,3.258-3.457,4.207-6.249h1.428l-0.348,9.744
		H391.044L391.044,148.29z M435.659,133.126h2.466c1.747,0,2.947-0.341,3.597-1.013c0.657-0.676,0.979-1.894,0.979-3.656
		c0-1.972-0.336-3.331-1.002-4.078c-0.677-0.748-1.862-1.123-3.573-1.123c-0.985,0-1.64,0.133-1.973,0.389
		c-0.329,0.257-0.493,0.954-0.493,2.09v0.351V133.126L435.659,133.126z M443.78,121.896c3.266,0,5.669,0.476,7.212,1.423
		c1.541,0.946,2.314,2.422,2.314,4.422c0,1.688-0.674,3.059-2.021,4.097c-1.341,1.044-3.375,1.769-6.083,2.184
		c2.138,0.435,3.646,0.998,4.522,1.696c0.877,0.695,1.459,1.748,1.741,3.159c0.116,0.579,0.193,1.589,0.218,3.038
		c0,0.413,0.007,0.739,0.019,0.972c0.039,1.261,0.188,2.102,0.454,2.517c0.271,0.42,0.739,0.628,1.411,0.628
		c0.589,0,1.031-0.259,1.338-0.766c0.305-0.51,0.454-1.254,0.454-2.246v-0.334h1.462v0.44c0,2.021-0.539,3.437-1.616,4.248
		c-1.082,0.807-2.971,1.21-5.682,1.21c-2.746,0-4.661-0.553-5.753-1.664c-1.087-1.108-1.662-3.198-1.71-6.272
		c-0.034-2.616-0.445-4.278-1.232-4.988s-2.357-1.067-4.713-1.067h-0.456v9.713c0,1.099,0.126,1.794,0.377,2.084
		c0.246,0.29,0.749,0.433,1.487,0.433h0.988v1.469h-15.437v-1.469h1.222c0.759,0,1.264-0.143,1.512-0.433
		c0.252-0.29,0.377-0.985,0.377-2.084v-18.534c0-1.084-0.125-1.772-0.369-2.058c-0.244-0.28-0.751-0.433-1.52-0.457h-1.222v-1.359
		H443.78L443.78,121.896z M459.335,148.29v-10.346h1.647c1.087,2.778,2.616,4.961,4.6,6.536c1.98,1.582,4.14,2.372,6.478,2.372
		c1.201,0,2.15-0.256,2.867-0.777c0.713-0.522,1.067-1.198,1.067-2.034c0-0.877-0.35-1.623-1.043-2.22
		c-0.693-0.602-2.364-1.406-5.012-2.408c-4-1.531-6.785-3.058-8.357-4.57c-1.575-1.512-2.36-3.343-2.36-5.482
		c0-2.401,0.906-4.329,2.708-5.773c1.804-1.449,4.222-2.169,7.261-2.169c2,0,4.038,0.389,6.123,1.167
		c2.085,0.777,3.215,1.166,3.384,1.166c0.449,0,0.824-0.149,1.123-0.451c0.3-0.302,0.539-0.766,0.706-1.403h1.649v9.152h-1.611
		c-0.935-2.38-2.379-4.285-4.326-5.716c-1.941-1.437-4.033-2.151-6.261-2.151c-1.048,0-1.867,0.212-2.459,0.633
		c-0.594,0.42-0.889,1.005-0.889,1.738c0,0.783,0.377,1.505,1.126,2.17c0.748,0.659,1.923,1.304,3.519,1.927
		c0.426,0.174,1.042,0.421,1.849,0.734c3.746,1.498,6.161,2.647,7.261,3.454c1.266,0.923,2.184,1.898,2.751,2.926
		c0.567,1.031,0.851,2.22,0.851,3.582c0,2.531-0.901,4.555-2.698,6.092c-1.797,1.538-4.169,2.309-7.121,2.309
		c-2.512,0-5.007-0.444-7.492-1.343c-2.479-0.894-3.775-1.341-3.898-1.341c-0.527,0-0.952,0.193-1.28,0.59
		c-0.334,0.394-0.527,0.939-0.587,1.638H459.335L459.335,148.29z M498.782,144.305c0,1.099,0.123,1.794,0.374,2.084
		s0.756,0.433,1.512,0.433h1.262v1.469h-15.693v-1.469h1.241c0.741,0,1.244-0.143,1.493-0.433c0.248-0.29,0.374-0.985,0.374-2.084
		v-18.534c0-1.084-0.126-1.772-0.367-2.058c-0.246-0.28-0.744-0.421-1.5-0.421h-1.241v-1.396h15.437v1.396h-1.005
		c-0.756,0-1.261,0.141-1.512,0.421c-0.251,0.285-0.374,0.974-0.374,2.058V144.305L498.782,144.305z M531.569,121.896l0.256,10.656
		h-1.79c-0.575-2.558-1.546-4.753-2.91-6.587c-1.37-1.833-2.529-2.748-3.49-2.748c-0.344,0-0.58,0.145-0.706,0.439
		c-0.13,0.297-0.192,0.903-0.192,1.818v18.829c0,1.099,0.125,1.794,0.366,2.084c0.247,0.29,0.744,0.433,1.5,0.433h1.242v1.469
		h-15.713v-1.469h1.244c0.756,0,1.254-0.143,1.498-0.433c0.243-0.29,0.369-0.985,0.369-2.084v-18.829
		c0-0.915-0.063-1.521-0.193-1.818c-0.126-0.295-0.364-0.439-0.708-0.439c-0.959,0-2.123,0.915-3.487,2.748
		c-1.37,1.834-2.336,4.029-2.908,6.587h-1.795l0.256-10.656H531.569L531.569,121.896z M553.142,144.305
		c0,1.099,0.125,1.794,0.372,2.084c0.251,0.29,0.756,0.433,1.512,0.433h1.28v1.469h-15.713v-1.469h1.244
		c0.744,0,1.242-0.143,1.49-0.433c0.249-0.29,0.375-0.985,0.375-2.084v-7.008l-5.431-10.954c-0.536-1.079-1.154-1.857-1.848-2.335
		c-0.693-0.477-1.563-0.716-2.597-0.716h-0.712v-1.396h17.41v1.396h-1.186c-0.6,0-1.029,0.077-1.288,0.232
		c-0.253,0.152-0.379,0.403-0.379,0.741c0,0.138,0.024,0.287,0.075,0.467c0.043,0.169,0.123,0.369,0.234,0.601l4.371,9.172l4.5-8.99
		c0.143-0.29,0.249-0.541,0.319-0.754c0.067-0.208,0.099-0.394,0.099-0.565c0-0.318-0.13-0.551-0.398-0.69
		c-0.268-0.143-0.712-0.213-1.316-0.213h-0.918v-1.396h8.814v1.396h-0.382c-1.085,0-1.983,0.259-2.688,0.769
		c-0.708,0.507-1.377,1.377-1.99,2.613l-5.251,10.517V144.305z"/>
</g>
</svg>
